<svg width="520" height="60" viewBox="0 0 520 60" fill="none" xmlns="http://www.w3.org/2000/svg">
  <desc>
    Logo da Petrobras e da AIR, com o nome "Rodrigo Souza dos Santos" abaixo.
  </desc>
  <style>
    svg .first-path { fill: var(--color-secondary-solid-to-bright-200, #FDC82F); }
    svg .second-path { fill: var(--color-primary-solid-to-bright-200, #008542); }
    svg .third-path { fill: var(--color-background-default-level-01, #FFF); }
  </style>
<!-- Petrobras Logo -->
  <g>
    <path class="first-path" d="M34.3178 0H0.0136719V8.2629H34.3178V0Z"></path>
    <path class="second-path" fill-rule="evenodd" clip-rule="evenodd" d="M71.1265 25.0616H60.5382L64.134 12.4728H74.4684L73.6312 15.3931H67.4621L66.9406 17.2012H72.1765L71.3324 20.142H66.0965L65.527 22.1139H71.9706L71.1265 25.0616ZM0.0136719 33.9999H34.3178V12.3909H0.0136719V33.9999ZM54.5063 21.1177C54.2799 21.1382 54.0534 21.1382 53.827 21.1382H51.734L50.6155 25.0547H46.4501L50.0733 12.4728H54.5132H56.1738C59.8176 12.4728 61.094 14.124 60.3598 16.7031C59.6324 19.2618 57.7384 20.913 54.5063 21.1177ZM54.5063 15.3931H53.3741L52.5986 18.1974L54.5132 18.2042C55.3778 18.1565 56.1052 17.7539 56.4003 16.7304C56.7159 15.55 55.4464 15.3931 54.5543 15.3931H54.5063ZM154.626 20.7834H155.943L155.895 16.2528L154.619 18.4703L153.322 20.7766H154.626V20.7834ZM154.626 12.8821L154.9 12.4728H159.134L160.067 25.0616H155.923V23.4103H154.626H151.778L150.824 25.0616H147.002H146.755L147.002 24.6795L154.626 12.8821ZM175.638 16.1163C175.953 13.9193 174.862 12.1316 171.356 12.1316C168.165 12.1316 165.461 13.4689 164.706 16.1573C163.32 20.954 170.992 19.6439 170.443 21.5681C170.285 22.1549 169.489 22.496 168.46 22.496C168.048 22.496 167.643 22.38 167.369 22.1822C167.074 21.957 166.916 21.6363 166.957 21.186H162.97C162.421 23.4513 164.041 25.3959 167.389 25.3959C170.875 25.3959 173.744 23.9698 174.56 21.0495C175.878 16.478 168.254 17.6311 168.803 15.7547C168.92 15.3044 169.393 15.0315 170.326 15.0315C170.711 15.0315 171.081 15.0997 171.328 15.2566C171.582 15.4135 171.74 15.6865 171.671 16.1163H175.638ZM147.002 16.3006C147.05 16.2119 147.07 16.1436 147.091 16.0481C147.365 15.0997 147.365 14.3287 147.002 13.7623C146.46 12.8821 145.067 12.4728 142.493 12.4728H141.107H136.509L132.914 25.0616H137.058L138.335 20.6674H139.591C140.366 20.6674 140.84 20.7561 141.114 20.9608C141.546 21.2747 141.478 21.8683 141.183 22.8645C141.162 22.9532 141.135 23.0214 141.114 23.0896C140.84 24.0858 140.75 24.8091 140.771 25.0616H141.114H144.984L145.073 24.6795C144.593 24.6795 144.799 24.1336 145.279 22.4824C146.007 19.9442 145.279 19.6303 144.092 19.1322C145.588 18.7433 146.569 17.6311 147.002 16.3006ZM141.1 17.904C142.171 17.8358 142.83 17.4946 143.056 16.7031C143.303 15.8229 142.713 15.3931 141.759 15.3931H141.1H139.824L139.097 17.904H140.737H141.1ZM125.372 25.0343C128.241 24.8773 130.361 23.8538 131.088 21.2747C131.473 19.8964 131.088 18.716 129.812 18.3748C130.766 17.8767 131.884 16.9283 132.248 15.6387C132.955 13.1278 130.882 12.4728 128.035 12.4728H125.372H121.962L118.366 25.0616H124.556C124.83 25.0616 125.098 25.0616 125.372 25.0343ZM125.372 15.3931H126.738C127.623 15.3931 128.419 15.4136 128.151 16.4097C127.945 17.133 127.239 17.4946 126.401 17.4946H125.379H124.7L125.29 15.3863H125.372V15.3931ZM125.372 19.8077C126.669 19.8077 127.63 19.8759 127.307 20.9608C127.06 21.8683 126.305 22.0935 125.372 22.1139H125.166H123.368L124.027 19.8077H125.345H125.372ZM110.529 22.1412C111.758 21.6636 112.581 20.3535 113.034 18.7023C113.535 16.9829 113.35 15.1679 111.511 15.2157C111.147 15.2157 110.831 15.2839 110.529 15.3931C109.232 15.9116 108.436 17.4059 108.073 18.6955C107.592 20.3058 107.524 22.3186 109.507 22.3186C109.87 22.3186 110.214 22.2504 110.529 22.1412ZM110.529 12.3363C111.147 12.1998 111.778 12.1316 112.416 12.1316C116.945 12.1316 118.153 15.3658 117.199 18.6955C116.177 22.2504 113.535 24.5157 110.529 25.1912C109.912 25.3277 109.28 25.3959 108.615 25.3959C104.655 25.3959 102.693 22.9532 103.9 18.6477C104.861 15.3453 107.414 13.0186 110.529 12.3363ZM95.9402 23.0896C95.9608 23.0214 95.9883 22.9532 96.0088 22.8645C96.3039 21.8683 96.3725 21.2815 95.9402 20.9608C95.6657 20.7561 95.1922 20.6674 94.4168 20.6674H93.1679L91.9396 25.0616H88.2477H87.7673L88.2477 23.4103L91.3631 12.4796H95.9402H97.3264C101.56 12.4796 102.61 13.6122 101.924 16.0549C101.492 17.5014 100.51 18.7296 98.9184 19.1322C100.106 19.6303 100.833 19.9442 100.106 22.4824C99.6252 24.1336 99.4193 24.6795 99.9203 24.6795L99.8036 25.0616H95.9333H95.5902C95.5765 24.8091 95.6863 24.0858 95.9402 23.0896ZM95.9402 17.904C97.0107 17.8358 97.6695 17.4946 97.8959 16.7031C98.143 15.8229 97.5528 15.3931 96.599 15.3931H95.9402H94.6638L93.9365 17.904H95.5765H95.9402ZM88.2408 14.124L88.7212 12.4728H88.2408H77.0829L76.1497 15.7752H79.8827L77.2202 25.0547H81.3718L84.0343 15.7752H87.7673L88.2408 14.124Z"></path>
    <path class="third-path" fill-rule="evenodd" clip-rule="evenodd" d="M34.3109 12.391V8.2561H0V12.391H6.60143L2.94388 24.9729H10.4305C13.6763 24.9729 14.239 24.2224 14.8978 23.6697C15.7762 22.9328 16.2497 21.1929 15.8517 19.9784C15.5703 19.1186 14.7537 18.6001 14.6645 18.5728C15.6801 18.1088 16.2703 17.0785 16.3389 16.9284C16.7163 16.1505 17.0045 14.745 16.0712 13.6123C15.2958 12.6707 13.7861 12.4114 12.6882 12.391H20.7032L17.032 24.9934H20.7444L22.1031 20.2172H24.2235C25.7675 20.2172 25.6234 21.1724 25.6646 21.5818L25.7881 25.0958H29.2398C29.2398 25.0958 29.082 21.152 29.0682 20.8654C29.0202 19.8487 28.3477 19.3984 27.7713 19.3984C28.8761 19.105 29.8368 18.102 30.2211 17.4674C30.6671 16.7305 30.9965 15.5569 30.5573 14.3902C29.926 12.698 28.2859 12.4183 27.14 12.3978H34.3109V12.391ZM23.6059 14.9292H26.3096C27.5929 14.9292 27.6409 15.7957 27.6409 16.0414C27.6409 16.6145 27.1331 17.7472 25.5754 17.7472H22.8236C22.8168 17.7472 23.5853 14.9974 23.6059 14.9292ZM8.17973 19.6577H10.6501C11.8579 19.6577 11.9265 19.9852 12.098 20.2649C12.2627 20.5447 12.1872 21.1315 12.0706 21.3362C11.9265 21.5886 11.6794 22.3801 10.1355 22.3801H7.39058C7.39058 22.3801 8.17973 19.6645 8.17973 19.6577ZM9.53158 14.9087H12.3931C12.9627 14.9087 13.4773 15.2704 13.4773 15.8708C13.4773 16.6759 12.8323 17.2423 11.9333 17.2423H8.87281L9.53158 14.9087Z"></path>
  </g>
<!-- AIR Logo -->
  <g transform="translate(204, 0)">
    <path d="M87.8071 6.09351C85.3455 4.10343 81.6105 4.54567 79.6412 7.01201C78.7754 8.1006 78.3849 9.35928 78.2491 10.703C78.1642 11.6045 77.8756 12.4379 77.4682 13.2374C76.1779 15.8398 74.3104 17.9829 72.0695 19.8199C69.4211 21.9631 66.501 23.4429 63.0207 23.596C61.4758 23.664 60.1686 24.3954 59.15 25.5691C56.162 28.9879 57.9955 34.4309 62.4265 35.3153C65.788 35.9957 68.9797 33.6314 69.438 30.2126C69.5569 29.2601 69.7946 28.3075 70.168 27.4231C71.8657 23.3919 74.7179 20.3813 78.4868 18.2721C80.3203 17.2516 82.2726 16.6732 84.3948 16.6903C86.1434 16.6903 87.6034 15.9248 88.7069 14.5811C90.863 11.9447 90.4556 8.23667 87.8071 6.09351Z" fill="black"/>
    <path d="M46.8756 5.46418H54.702V0.378418H33.9731V5.46418H41.7995V34.8221H33.9731V39.9078H54.719V34.8221H46.8756V5.46418Z" fill="black"/>
    <path d="M7.65875 0.378418L0.37561 8.88302V39.8908H5.45174V23.9532H21.3931V39.8908H26.4693V8.81499L18.4391 0.378418H7.65875ZM21.4101 18.8674H5.46871V10.771L10.0016 5.46418H16.2661L21.3931 10.8561V18.8674H21.4101Z" fill="black"/>
    <path d="M123.697 8.81499L115.666 0.378418H97.6029V39.8908H102.679V23.9532H114.75L118.62 29.8214V39.9078H123.697V28.2905L119.418 21.827L123.697 17.7618V8.81499ZM118.62 15.5676L115.157 18.8674H102.679V5.46418H113.493L118.62 10.8561V15.5676Z" fill="black"/>
  </g>
<!-- Texto abaixo do logo -->
  <text
    x="266"
    y="55"
    text-anchor="middle"
    font-family="Arial, Helvetica, sans-serif"
    font-size="14"
    fill="black">
    <!-- Rodrigo Souza dos Santos -->
    Compass.UOL
  </text>
</svg>
