<svg width="124" height="40" viewBox="0 0 124 40" fill="none" xmlns="http://www.w3.org/2000/svg">
<path d="M87.8071 6.09351C85.3455 4.10343 81.6105 4.54567 79.6412 7.01201C78.7754 8.1006 78.3849 9.35928 78.2491 10.703C78.1642 11.6045 77.8756 12.4379 77.4682 13.2374C76.1779 15.8398 74.3104 17.9829 72.0695 19.8199C69.4211 21.9631 66.501 23.4429 63.0207 23.596C61.4758 23.664 60.1686 24.3954 59.15 25.5691C56.162 28.9879 57.9955 34.4309 62.4265 35.3153C65.788 35.9957 68.9797 33.6314 69.438 30.2126C69.5569 29.2601 69.7946 28.3075 70.168 27.4231C71.8657 23.3919 74.7179 20.3813 78.4868 18.2721C80.3203 17.2516 82.2726 16.6732 84.3948 16.6903C86.1434 16.6903 87.6034 15.9248 88.7069 14.5811C90.863 11.9447 90.4556 8.23667 87.8071 6.09351Z" fill="black"/>
<path d="M46.8756 5.46418H54.702V0.378418H33.9731V5.46418H41.7995V34.8221H33.9731V39.9078H54.719V34.8221H46.8756V5.46418Z" fill="black"/>
<path d="M7.65875 0.378418L0.37561 8.88302V39.8908H5.45174V23.9532H21.3931V39.8908H26.4693V8.81499L18.4391 0.378418H7.65875ZM21.4101 18.8674H5.46871V10.771L10.0016 5.46418H16.2661L21.3931 10.8561V18.8674H21.4101Z" fill="black"/>
<path d="M123.697 8.81499L115.666 0.378418H97.6029V39.8908H102.679V23.9532H114.75L118.62 29.8214V39.9078H123.697V28.2905L119.418 21.827L123.697 17.7618V8.81499ZM118.62 15.5676L115.157 18.8674H102.679V5.46418H113.493L118.62 10.8561V15.5676Z" fill="black"/>
</svg>
